# xmcd
#
# Track frame offsets: 
#        225
#        15428
#        29955
#        45298
#        65636
#        76427
#        92360
#        107700
#        130770
#        144229
#        161581
#        186781
#        205881
#        219519
#
# Disc length: 3246 seconds
#
# Revision: 0
# Processed by: cddbd v1.5.2PL0 Copyright (c) Steve Scherf et al.
# Submitted via: ExactAudioCopy v0.95b4
#
DISCID=ba0cab0e
DTITLE=hangover blues band - the way it is
DYEAR=1992
DGENRE=blues
TTITLE0=all your love
TTITLE1=just your fool
TTITLE2=story of the blues
TTITLE3=the way it is
TTITLE4=blue monday
TTITLE5=pride&joy
TTITLE6=hangover blues
TTITLE7=i"ve made nights by myself
TTITLE8=sugaree
TTITLE9=the right time
TTITLE10=jlh
TTITLE11=thinkin of saturday night
TTITLE12=travellin band
TTITLE13=going home
EXTD=
EXTT0=
EXTT1=
EXTT2=
EXTT3=
EXTT4=
EXTT5=
EXTT6=
EXTT7=
EXTT8=
EXTT9=
EXTT10=
EXTT11=
EXTT12=
EXTT13=
PLAYORDER=
